<svg width="57" height="55" viewBox="0 0 57 55" fill="none" xmlns="http://www.w3.org/2000/svg">
<path d="M42.983 12.1304L44.3021 41.6841H38.0861L37.6252 30.4096L22.9075 52.3602L16.519 31.7566L6.74119 55H0L17.3477 13.7608L24.9588 38.2323L42.983 12.1304Z" fill="black"/>
<path d="M29.0778 0C44.1059 0 56.2885 12.2058 56.2885 27.2625C56.2885 38.6552 49.3136 48.4157 39.4088 52.4914L39.4087 48.6386C47.3218 44.7926 52.7775 36.6659 52.7775 27.2625C52.7775 14.1486 42.1668 3.51774 29.0778 3.51774C15.9889 3.51774 5.37824 14.1486 5.37824 27.2625C5.37824 32.7426 7.23117 37.7891 10.3436 41.8074L7.94401 41.807L7.94359 44.4361C4.14414 39.7483 1.86719 33.7718 1.86719 27.2625C1.86719 12.2058 14.0498 0 29.0778 0Z" fill="black"/>
<path fill-rule="evenodd" clip-rule="evenodd" d="M39.7056 48.5215L38.0575 47.6945H34.4551V53.2083H38.0575L39.7056 52.3602V48.5215Z" fill="black"/>
<path d="M34.4551 48.5215H30.8711V49.8999H34.4551V48.5215Z" fill="black"/>
<path d="M34.4551 51.0028H30.8711V52.3813H34.4551V51.0028Z" fill="black"/>
</svg>
